<svg width="23" height="6" viewBox="0 0 23 6" fill="none" xmlns="http://www.w3.org/2000/svg">
<path d="M17.25 3C17.25 2.20435 17.5529 1.44129 18.0921 0.87868C18.6312 0.316071 19.3625 0 20.125 0C20.8875 0 21.6188 0.316071 22.1579 0.87868C22.6971 1.44129 23 2.20435 23 3C23 3.79565 22.6971 4.55871 22.1579 5.12132C21.6188 5.68393 20.8875 6 20.125 6C19.3625 6 18.6312 5.68393 18.0921 5.12132C17.5529 4.55871 17.25 3.79565 17.25 3ZM8.625 3C8.625 2.20435 8.9279 1.44129 9.46707 0.87868C10.0062 0.316071 10.7375 0 11.5 0C12.2625 0 12.9938 0.316071 13.5329 0.87868C14.0721 1.44129 14.375 2.20435 14.375 3C14.375 3.79565 14.0721 4.55871 13.5329 5.12132C12.9938 5.68393 12.2625 6 11.5 6C10.7375 6 10.0062 5.68393 9.46707 5.12132C8.9279 4.55871 8.625 3.79565 8.625 3ZM0 3C0 2.20435 0.302901 1.44129 0.842068 0.87868C1.38123 0.316071 2.1125 0 2.875 0C3.6375 0 4.36877 0.316071 4.90793 0.87868C5.4471 1.44129 5.75 2.20435 5.75 3C5.75 3.79565 5.4471 4.55871 4.90793 5.12132C4.36877 5.68393 3.6375 6 2.875 6C2.1125 6 1.38123 5.68393 0.842068 5.12132C0.302901 4.55871 0 3.79565 0 3Z" fill="#005893"/>
</svg>
